<svg version="1.1" id="Layer_1" xmlns="http://www.w3.org/2000/svg" xmlns:xlink="http://www.w3.org/1999/xlink" x="0px" y="0px"
	 width="100%" viewBox="0 0 1024 1024" enable-background="new 0 0 1024 1024" xml:space="preserve">
<path fill="#000000" opacity="1.000000" stroke="none" 
	d="
M628.165039,521.921021 
	C621.283142,542.191895 608.473572,558.125854 594.518494,573.271606 
	C574.199585,595.323975 550.597717,613.514832 526.562500,631.254272 
	C495.453186,654.214783 466.704956,679.673584 444.809357,712.000671 
	C440.808014,717.908325 437.046936,723.978760 433.613770,730.416809 
	C452.646973,708.796997 471.805023,687.488953 500.562927,679.079651 
	C500.900635,679.516846 501.238342,679.954102 501.576050,680.391357 
	C496.881897,683.914734 492.026978,687.244751 487.519318,690.992493 
	C454.825378,718.174744 427.604309,749.714050 410.183167,788.954651 
	C396.536865,819.692505 392.949402,851.230896 402.883179,883.800110 
	C403.198730,884.834778 403.935272,885.928650 402.495056,887.357727 
	C398.122681,880.725281 395.083832,873.589233 392.419647,866.354370 
	C381.034637,835.437683 378.603699,803.678345 382.357178,770.996765 
	C387.521179,726.033691 405.726929,687.067261 433.815430,652.156982 
	C439.865173,644.638000 445.192047,636.537598 450.861237,628.711792 
	C451.605042,627.685059 451.879242,626.190613 454.224884,625.842163 
	C451.182343,650.850708 438.077820,671.624695 427.835938,693.556274 
	C432.578613,689.548584 436.063416,684.583252 439.576599,679.683350 
	C451.825623,662.599670 464.013794,645.429871 468.964203,624.489807 
	C473.298431,606.156311 473.575989,587.872498 466.888733,569.951294 
	C463.017365,559.576355 456.804352,550.854248 447.695862,544.340698 
	C446.681152,543.615051 445.180817,543.225952 445.176178,540.566711 
	C452.425079,542.972107 458.852081,545.989441 463.962097,551.375366 
	C472.159821,560.015808 476.384277,570.568665 478.280609,582.148621 
	C481.027405,598.921692 479.002838,615.301697 474.016418,631.415161 
	C473.524628,633.004456 473.000366,634.583984 472.532288,636.180054 
	C472.449524,636.462402 472.570404,636.804443 472.653931,637.783813 
	C478.251923,628.393372 481.398163,618.704651 483.209198,608.594360 
	C486.724121,588.971985 485.761932,569.940796 473.500702,553.173706 
	C463.466919,539.452820 450.431824,530.710388 432.606689,531.108826 
	C418.416534,531.425964 408.203644,539.043091 399.586060,549.313721 
	C391.919769,558.450500 386.016907,568.653198 382.314758,580.065918 
	C380.007294,587.179260 381.505066,590.449341 388.565491,592.416016 
	C390.834778,593.048096 391.858307,594.103577 392.383301,596.328491 
	C394.287201,604.397461 390.984741,613.468262 383.825867,617.567688 
	C369.567078,625.732605 354.313568,627.634460 338.532013,623.101501 
	C328.822083,620.312561 323.750580,612.188538 318.878784,604.136475 
	C317.430939,601.743408 316.252441,599.187439 315.027679,596.853210 
	C312.055298,596.363159 310.434387,599.552917 307.406189,598.648987 
	C305.809174,594.465149 306.543518,590.298096 308.547058,586.396301 
	C310.111267,583.349854 310.232086,580.765198 308.746918,577.527588 
	C306.224182,572.028076 306.194275,566.099182 307.600372,559.392212 
	C311.753998,568.239746 318.752380,566.929626 325.888153,565.825317 
	C331.387299,564.974365 336.813538,566.258545 342.208038,567.334595 
	C350.659607,569.020325 358.537506,564.762390 362.278625,556.550781 
	C361.454163,556.240479 361.034698,556.894287 360.726715,557.378906 
	C355.281403,565.946960 347.533630,567.786743 338.132019,565.447083 
	C333.434540,564.278137 328.618073,563.876526 323.760498,564.763550 
	C319.697357,565.505432 317.193390,562.987183 314.992493,560.157471 
	C311.815033,556.072144 310.678772,551.122681 309.948944,546.204468 
	C308.757416,538.174683 308.340210,530.008179 304.026794,522.289856 
	C307.773315,521.585266 309.383331,523.809265 310.899658,525.832397 
	C315.300079,531.703735 319.747711,537.520325 325.113129,542.570190 
	C326.190887,543.584534 326.983398,544.937744 329.223511,545.472656 
	C331.456940,542.088013 331.624542,538.321716 329.150238,535.221802 
	C322.239685,526.564087 321.099182,517.195679 323.289612,506.559204 
	C324.684509,499.785614 324.584717,492.603363 322.395508,485.775818 
	C321.368988,482.574432 320.009613,479.516876 316.613892,478.009003 
	C315.335388,477.441345 314.008759,477.067139 312.804016,477.895874 
	C311.352570,478.894348 312.068268,480.392090 312.503906,481.548889 
	C314.506409,486.867188 315.981445,492.306824 316.766815,497.936646 
	C316.927826,499.090790 317.260895,500.231842 316.101776,502.096924 
	C311.226318,497.357666 310.576630,489.786377 304.515045,484.986206 
	C304.507233,490.063629 308.096649,493.096039 307.784149,497.944092 
	C301.490906,493.857361 295.795654,489.878662 289.103760,487.680847 
	C285.653351,490.614563 288.825470,495.385498 285.768951,498.538239 
	C282.994049,495.641327 283.294617,492.032318 282.737061,488.730988 
	C282.517181,487.429230 282.688080,486.066437 282.583710,484.739136 
	C282.388245,482.253632 281.019714,480.290527 278.555969,480.602722 
	C275.961761,480.931427 276.103851,483.601166 276.468384,485.489655 
	C277.792694,492.349915 279.310120,499.176514 282.168274,505.613708 
	C282.495850,506.351501 282.680786,507.152588 282.980194,508.072968 
	C280.882568,508.939911 280.170105,507.336334 279.267609,506.352264 
	C273.366699,499.917908 270.406921,491.953369 267.673859,483.877747 
	C267.086761,482.142975 266.579193,480.378448 265.923798,478.670288 
	C264.993317,476.245026 264.735352,472.920349 261.584595,472.531525 
	C258.494812,472.150238 257.834412,475.320435 256.688019,477.447266 
	C255.098007,480.397064 253.341354,479.839050 251.054184,478.158936 
	C241.387665,471.058533 239.254669,460.507690 237.743530,449.640869 
	C237.675201,449.149567 237.648010,448.629578 237.728592,448.144043 
	C238.923965,440.941650 237.354767,434.830048 233.802429,428.053925 
	C228.165527,417.301575 231.949387,402.473450 243.476685,394.499298 
	C259.781494,383.220276 275.877197,371.635529 292.290253,360.518005 
	C298.994202,355.977051 303.682800,349.291504 310.354492,344.801453 
	C312.299042,343.492798 311.994934,341.284790 311.931305,339.300293 
	C311.758911,333.922668 312.147797,328.567139 314.167114,323.580109 
	C315.640137,319.942322 314.490417,318.375061 311.047852,317.519928 
	C309.686890,317.181885 308.073029,317.058624 307.174805,315.192108 
	C312.014221,313.181671 319.035645,319.642303 322.139893,310.726318 
	C309.130310,306.927460 295.754913,306.144531 282.089722,306.810608 
	C282.599701,304.073914 284.449615,304.875305 285.725281,304.693237 
	C298.436981,302.878662 310.976440,304.344543 323.389832,307.049713 
	C326.673218,307.765198 328.895782,307.305756 330.600830,303.643982 
	C322.452240,297.738007 312.437469,296.337830 303.393127,292.492889 
	C309.216492,292.143585 314.553436,294.227600 320.069244,295.347870 
	C325.528290,296.456604 330.009338,300.779297 337.356445,300.811096 
	C325.803497,288.468018 311.545258,282.825439 298.861359,274.792999 
	C302.408752,274.654358 305.305542,276.289185 308.252197,277.609344 
	C318.764130,282.318939 328.912964,287.690552 338.218048,294.552612 
	C339.474152,295.478943 340.651245,297.047363 342.579987,295.614685 
	C350.437531,289.778137 358.316620,283.970612 366.377045,278.012482 
	C361.966125,271.322601 355.666901,266.853149 351.185730,260.756073 
	C356.060486,262.106445 359.082092,265.899109 362.472351,269.095184 
	C369.595245,275.810089 369.145172,274.998230 377.991882,271.245636 
	C386.037231,267.832977 385.321808,262.322083 384.537628,255.998505 
	C381.701416,233.128555 385.111084,211.192596 394.554352,190.211838 
	C398.348114,181.782883 403.509979,174.239136 410.307373,167.902786 
	C411.126282,167.139435 412.214020,166.664383 413.182465,166.052353 
	C415.215607,167.740799 414.431458,169.911224 414.567963,171.757660 
	C416.191467,193.713913 429.256470,207.959183 446.764648,218.904404 
	C465.854156,230.838165 486.998383,233.980560 509.138947,232.425247 
	C531.417236,230.860260 553.680054,230.554214 576.005066,232.359146 
	C590.089905,233.497879 604.071106,235.838379 618.271851,235.834198 
	C625.249573,235.832153 630.737427,233.565659 635.689941,228.718857 
	C648.032776,216.639420 656.088379,201.635605 664.796997,187.058685 
	C668.547363,180.781036 672.424866,174.600250 677.172729,169.272903 
	C680.145203,169.591599 681.119263,171.733749 682.412292,173.367249 
	C700.770142,196.558899 711.143738,222.892609 714.498230,252.303833 
	C717.752991,280.841187 711.652039,306.843262 695.766785,330.675812 
	C693.126343,334.637329 690.775208,338.791656 688.543579,343.034546 
	C698.604736,334.617249 704.745728,323.277313 711.125854,311.490906 
	C720.190247,317.347748 728.255432,323.439789 735.848328,330.131805 
	C745.616760,338.741272 754.624207,348.045349 762.163574,358.764069 
	C765.534058,363.555878 770.977722,366.314606 775.416809,370.070465 
	C800.844055,391.583954 820.938599,417.009888 831.226196,449.022980 
	C846.356384,496.105042 840.569580,541.453979 817.476196,584.699890 
	C804.146301,609.662292 785.429260,630.470276 764.770569,649.595032 
	C724.797424,686.600220 678.803589,714.575134 630.657043,739.409851 
	C600.165344,755.138000 568.914978,769.404846 539.182068,786.592041 
	C522.592773,796.181580 506.278259,806.220398 491.355164,818.335876 
	C490.586853,818.959717 489.871216,819.632080 487.967590,819.163269 
	C490.981598,814.631042 494.545593,811.091736 498.193176,807.640137 
	C526.026062,781.303528 558.163940,761.116638 591.526123,742.766663 
	C623.638855,725.103760 656.423340,708.613586 688.063538,690.152832 
	C727.108154,667.371765 763.091919,640.558105 790.773315,603.952576 
	C811.601501,576.409668 824.062744,545.501770 827.423950,511.323608 
	C830.884521,476.133911 822.054382,443.589294 802.778687,413.921356 
	C796.528870,404.301971 789.744385,395.109009 780.951294,386.286682 
	C780.723145,389.331207 782.022400,390.872345 782.902832,392.447296 
	C795.896667,415.691681 801.476562,440.749420 801.271179,467.224884 
	C801.046509,496.184021 790.014038,520.956543 771.848450,542.951599 
	C749.097473,570.498840 721.496948,592.389465 691.393799,611.215210 
	C657.638489,632.325012 623.234497,652.395996 590.672241,675.391174 
	C555.877502,699.962952 522.462524,726.156738 494.418518,758.454346 
	C478.774628,776.471008 464.576538,795.620911 455.213531,817.874878 
	C454.744690,818.989136 454.644562,820.536743 452.617493,820.970825 
	C452.934540,816.290100 454.746429,812.191223 456.118683,808.021484 
	C464.430542,782.765930 477.993744,760.231873 492.592316,738.262268 
	C507.085754,716.450867 521.031250,694.409912 529.910278,669.496704 
	C534.981384,655.267944 545.676331,644.987183 556.712524,635.180054 
	C571.907654,621.677307 588.258423,609.513245 602.919739,595.396362 
	C618.437195,580.455200 631.483826,563.686646 639.676147,543.587341 
	C652.465210,512.209900 649.142273,481.303955 636.097717,450.923737 
	C627.147034,430.078033 613.821960,412.336975 596.703735,397.458191 
	C593.967163,395.079620 591.183533,392.712433 587.069519,391.486359 
	C587.816467,393.664612 589.333069,394.660339 590.524963,395.891815 
	C610.639099,416.674561 625.399109,440.406189 630.757751,469.265991 
	C634.026550,486.870789 633.929016,504.342926 628.165039,521.921021 
M409.549896,314.617737 
	C413.595581,310.338226 418.577118,308.103455 424.403595,307.292389 
	C430.880920,306.390717 436.924469,308.199677 443.019165,309.730072 
	C453.062866,312.252106 462.078125,310.059631 470.283539,304.035065 
	C471.634827,303.042908 473.639893,302.217133 472.776031,299.526459 
	C467.506500,298.573944 462.311646,300.322083 457.049652,300.387238 
	C447.264465,300.508392 437.474365,301.062042 427.775177,302.432251 
	C419.583038,303.589600 412.274750,306.349976 408.480896,315.444336 
	C406.162292,317.759949 403.079498,318.771667 400.164307,319.841858 
	C389.231232,323.855530 380.404053,331.425598 370.516968,337.189209 
	C367.251465,339.092834 364.408447,342.209473 366.304138,347.314117 
	C368.885132,340.993713 374.679993,338.995087 379.884216,336.176453 
	C381.769775,335.155243 383.512543,333.814117 385.169098,332.436890 
	C390.072571,328.360199 395.338440,324.914062 401.395905,322.815247 
	C405.275238,321.471100 408.064362,319.146515 409.549896,314.617737 
M398.077637,409.654633 
	C389.699066,410.936310 381.301422,412.108551 372.953461,413.565643 
	C370.413239,414.009033 369.019165,413.504364 367.746094,411.185272 
	C360.837921,398.601135 348.988281,394.619598 335.989136,395.704651 
	C311.394775,397.757599 291.673889,411.241028 273.089935,426.035492 
	C264.951385,432.514526 265.212769,440.286469 271.768097,448.431793 
	C277.427704,455.464111 285.124542,459.227722 293.616150,461.652039 
	C303.725952,464.538422 314.066559,463.901337 324.371674,463.688080 
	C329.742401,463.576965 335.041656,462.838165 339.579254,459.653137 
	C342.141571,457.854584 344.321625,457.652771 346.479980,461.044281 
	C347.325043,456.321991 345.914917,452.822845 343.906799,448.446564 
	C351.022736,449.606476 356.735565,448.206116 361.436096,443.433167 
	C363.706879,441.127411 365.741608,439.192841 361.823608,436.186707 
	C366.229523,435.992096 372.990631,430.719879 371.735535,428.695465 
	C369.174652,424.564941 371.405487,420.012848 368.962708,416.184753 
	C369.771851,415.693359 370.290985,415.166840 370.891052,415.047546 
	C375.126526,414.205719 379.350403,413.209534 383.630066,412.701691 
	C409.381073,409.645996 435.114960,406.617462 460.289642,399.985992 
	C478.756470,395.121521 497.505920,392.881989 516.619568,395.640350 
	C519.532288,396.060669 522.462952,397.715271 525.861816,396.228699 
	C525.202026,395.647888 524.895325,395.217712 524.480835,395.042328 
	C523.105164,394.460175 521.713074,393.897675 520.287720,393.454956 
	C499.252014,386.921082 478.593994,388.897400 458.151886,396.181671 
	C438.966705,403.018005 419.387421,408.141144 398.077637,409.654633 
M413.244690,283.693512 
	C433.388062,270.383484 453.267487,256.598877 476.010590,247.858917 
	C483.234924,245.082672 490.574066,242.625122 498.528625,242.537186 
	C490.537903,246.002701 482.044586,248.157516 474.482666,252.557098 
	C466.902710,256.967163 460.220551,262.247986 456.169983,270.522278 
	C472.662842,259.441895 490.719238,252.605881 509.916992,248.832413 
	C529.039978,245.073624 548.365051,244.038330 567.809143,245.576981 
	C563.012695,248.048416 557.741699,247.328934 552.761658,248.365570 
	C547.962585,249.364517 543.038574,249.930771 538.612671,252.352158 
	C562.005920,249.559067 585.637329,248.527496 608.417114,241.811127 
	C607.778992,240.973358 607.197937,240.560928 606.584351,240.505081 
	C594.661377,239.419800 582.750793,237.778717 570.804932,237.452667 
	C548.337585,236.839462 525.866150,236.826355 503.381409,238.092453 
	C477.503510,239.549606 452.088928,243.074905 427.446716,251.352554 
	C419.426544,254.046631 412.140411,258.240540 404.570679,261.857269 
	C413.668182,259.019470 422.583862,255.812576 432.048615,254.219559 
	C411.097961,263.263458 390.822021,273.193542 371.807770,285.933228 
	C352.108856,299.131622 339.973145,318.162506 328.677673,337.580597 
	C331.137146,337.802307 334.470154,337.451111 337.736115,338.419189 
	C340.521210,339.244720 342.364349,338.057190 342.526947,335.058472 
	C343.345795,319.958466 351.642212,309.768341 364.011627,302.283508 
	C379.825714,292.714294 395.673309,283.200226 411.544983,273.726929 
	C412.482849,273.167145 413.542297,271.779022 415.358643,273.447479 
	C413.796844,274.791687 412.347534,276.088348 410.846832,277.322479 
	C403.263580,283.558624 395.385681,289.451202 389.417236,297.439148 
	C382.630768,306.521881 380.516815,316.487427 384.111664,324.268860 
	C385.087524,320.968018 385.839661,317.736847 386.989441,314.653992 
	C391.915802,301.445007 401.833862,292.383484 413.244690,283.693512 
M553.222961,397.238800 
	C557.809570,400.877289 561.949280,404.971527 565.568542,409.570160 
	C592.092773,443.272186 596.974487,482.050415 591.736938,523.015625 
	C590.000244,536.599243 585.843628,549.681091 580.930969,562.510193 
	C582.871460,559.951538 584.548401,557.301331 586.182068,554.624817 
	C586.701111,553.774475 587.114929,552.858948 587.560181,551.964905 
	C599.693237,527.597534 603.698486,501.850159 600.792358,474.885162 
	C597.223450,441.770355 583.579163,413.745087 557.602417,392.667419 
	C527.273987,368.058746 493.578125,357.159332 454.764557,370.319702 
	C442.690430,374.413635 430.175201,375.998688 417.376709,375.355469 
	C411.561554,375.063232 405.690918,374.933167 399.896179,375.383118 
	C389.622131,376.180878 381.001709,379.790314 378.050507,390.973633 
	C377.478058,393.142853 376.384094,393.887360 372.992554,392.527832 
	C377.519104,396.704407 379.312927,401.235016 383.154846,403.798767 
	C383.858612,403.244965 384.204529,403.093811 384.348816,402.831696 
	C384.582916,402.406372 384.758087,401.919556 384.831726,401.439301 
	C386.181366,392.640503 391.858124,387.450562 399.396606,383.692291 
	C407.058197,379.872620 415.253937,378.675903 423.640045,378.820404 
	C441.320679,379.125061 458.848907,376.757629 476.466919,376.090088 
	C503.990112,375.047302 530.406250,378.335358 553.222961,397.238800 
M667.611938,309.168030 
	C692.486328,296.190094 705.289612,275.555511 705.591553,247.622375 
	C705.844971,224.180756 696.287537,204.015091 682.884583,185.406158 
	C681.914429,184.059235 680.782654,182.810272 678.823669,182.841614 
	C677.092957,184.383499 676.751892,186.531174 676.182617,188.603470 
	C673.651306,197.817062 673.581909,207.354004 672.455139,216.749466 
	C668.879517,246.562729 653.638489,267.976562 626.779785,281.461121 
	C610.711670,289.528229 593.714722,294.513977 576.286499,298.363434 
	C570.126770,299.723999 563.993347,301.207153 557.712891,302.105408 
	C565.525024,301.963104 573.288696,301.594971 580.987305,300.679535 
	C601.576538,298.231262 621.003601,292.074951 638.623779,281.016388 
	C653.735107,271.532379 663.625488,257.918335 669.090881,240.920715 
	C672.673340,229.778915 673.829346,218.134613 676.738098,206.868057 
	C677.535767,203.778519 678.513916,200.394669 682.261902,199.911880 
	C685.858093,199.448639 687.467224,202.579895 688.907898,205.123337 
	C699.046692,223.023087 703.333923,241.952652 697.546875,262.182434 
	C690.410400,287.129456 672.653625,301.123352 648.619446,308.234344 
	C641.166504,310.439453 633.379700,310.852234 625.721619,312.104034 
	C639.724731,315.377197 653.496460,315.174683 667.611938,309.168030 
M534.895691,477.513794 
	C538.526855,480.416748 542.670349,482.809113 544.759766,487.450745 
	C538.109924,484.238861 531.546692,481.112213 524.305115,479.889526 
	C517.084534,478.670441 509.844635,477.056366 502.415192,480.022858 
	C547.823486,484.556488 572.465210,509.123260 575.207764,555.087708 
	C581.480591,526.487976 573.388245,498.920990 553.081116,480.969666 
	C537.481506,467.179718 519.335266,459.905182 498.022827,462.680786 
	C510.994537,465.313599 523.233154,469.732544 534.895691,477.513794 
M341.821136,489.607422 
	C338.430725,479.155457 332.044678,473.729401 323.490601,474.032440 
	C337.641235,489.470642 343.966949,504.491211 345.233521,526.124084 
	C345.377441,528.582336 346.204681,530.112000 348.360626,531.267761 
	C353.632233,534.093750 358.273895,533.010864 362.347260,527.803711 
	C372.254944,515.138306 364.085236,492.993744 347.620026,487.890869 
	C344.831451,490.096008 347.891174,494.190125 344.994080,496.464111 
	C342.322723,495.106567 343.072205,492.313751 341.821136,489.607422 
M357.591644,589.982788 
	C352.443481,587.665283 347.412781,585.023376 342.119415,583.106934 
	C334.325928,580.285339 326.282837,579.469360 318.230835,582.277649 
	C312.686981,584.211182 309.820312,588.222107 309.059723,594.201721 
	C312.809143,593.492065 315.610779,590.549561 319.429779,591.800110 
	C321.002594,598.580383 326.416382,602.269226 330.813293,606.967896 
	C332.203857,605.178955 330.112823,603.231262 332.263947,601.807861 
	C335.237396,603.520142 336.799408,607.213928 340.096222,608.741638 
	C341.315979,606.894531 339.915344,604.312927 342.306366,603.311157 
	C345.354401,603.761536 346.562805,607.695618 349.866638,607.342468 
	C351.829742,605.828613 351.068420,601.655823 355.427917,602.914368 
	C361.531342,604.676331 365.455078,600.610718 369.963623,597.083618 
	C366.225739,593.556519 361.867584,592.572998 357.591644,589.982788 
M302.808228,380.246002 
	C306.021820,378.504089 309.260071,376.805878 312.442047,375.008026 
	C315.663269,373.187988 318.410065,370.771820 320.621582,367.810760 
	C322.385193,365.449402 322.263031,362.767212 319.062378,362.633179 
	C308.879059,362.206726 298.396881,360.528809 289.242767,367.208160 
	C279.980804,373.966156 270.663269,380.648102 261.381744,387.379456 
	C259.358215,388.846985 257.384308,390.382874 254.407684,392.625488 
	C271.360901,388.991547 287.944336,389.498444 302.808228,380.246002 
M663.682556,413.770142 
	C653.163940,393.119873 638.755798,376.224091 617.364258,365.909302 
	C655.915527,396.489136 672.701904,437.167938 673.314026,485.553253 
	C676.187500,460.945068 675.082458,437.035614 663.682556,413.770142 
M394.711609,243.917801 
	C394.388916,232.596390 395.237152,221.466049 399.964905,210.842941 
	C401.887939,224.112625 402.484650,237.592087 411.180267,248.731308 
	C403.322174,232.483887 398.542877,215.920090 405.153351,197.849243 
	C411.087921,207.981949 416.458130,218.295303 426.092926,225.401337 
	C435.803894,232.563568 446.267273,236.909409 458.709412,234.581207 
	C447.286682,229.735809 435.171509,226.459106 425.461884,218.281906 
	C415.600037,209.976456 408.410126,199.844330 404.255463,187.218597 
	C393.738953,206.363953 393.558105,226.926025 394.714355,247.681000 
	C394.714355,246.691360 394.714355,245.701736 394.711609,243.917801 
M442.157654,330.621918 
	C437.993286,327.988617 435.422180,329.257080 433.125275,333.506561 
	C427.811188,343.338165 419.347992,349.244171 408.350220,350.997589 
	C402.624878,351.910431 396.741455,351.795807 390.941223,352.284851 
	C384.845001,352.798798 380.130188,355.658600 376.916412,361.084534 
	C385.548065,357.170654 394.704407,357.206268 403.742523,357.060120 
	C414.517517,356.885925 424.006866,353.480133 432.321472,346.843170 
	C438.822662,341.653717 444.911469,335.846405 453.999237,335.788177 
	C454.154449,335.787170 454.306641,335.313843 454.501312,334.993286 
	C452.876892,333.723541 450.845917,333.625885 448.985596,333.043427 
	C446.922791,332.397552 444.895752,331.637451 442.157654,330.621918 
M471.996307,516.592834 
	C472.814392,518.312195 474.575043,517.737244 475.879669,518.041260 
	C504.171783,524.634583 525.725952,540.047119 539.226807,566.119751 
	C540.028931,567.668762 540.476562,569.552124 542.318787,570.444153 
	C543.092590,569.251404 542.663086,568.119080 542.365906,567.043030 
	C539.537659,556.799194 534.924561,547.423767 527.788330,539.531006 
	C513.013123,523.189575 493.918518,516.889709 471.996307,516.592834 
M294.820709,470.922180 
	C288.075500,468.983246 281.506348,466.667603 275.729370,462.507111 
	C269.972656,458.361267 267.160156,451.899902 263.428955,445.759583 
	C260.752441,447.905060 260.197113,449.971741 260.508362,452.443604 
	C261.225983,458.143677 263.600159,463.085907 268.062714,466.644196 
	C279.201141,475.525726 291.869110,477.264740 305.547455,473.672607 
	C302.230896,472.832794 298.914337,471.992981 294.820709,470.922180 
M623.013306,249.635147 
	C623.818359,248.403946 625.672913,247.595566 624.669250,245.033127 
	C606.457092,255.442245 588.817566,266.298218 569.626770,274.191986 
	C590.881592,274.156799 608.082336,265.166901 623.013306,249.635147 
M631.706055,407.708374 
	C617.110657,382.020935 595.311768,364.629181 568.593811,352.890594 
	C594.122803,369.085327 615.302795,389.995605 634.427490,413.239929 
	C633.626953,411.606873 632.826416,409.973816 631.706055,407.708374 
M421.594513,334.975800 
	C422.275177,333.112030 423.098328,331.285004 423.591522,329.372894 
	C423.988098,327.835358 423.679230,326.148407 421.849945,325.757904 
	C417.836639,324.901062 413.883911,325.943115 410.116058,327.062103 
	C407.299255,327.898682 408.996582,330.846680 408.565521,332.809967 
	C408.081268,335.015411 407.553223,337.233734 405.115692,337.823303 
	C402.844788,338.372589 401.542023,336.546844 400.216888,335.028137 
	C399.050507,333.691406 398.866577,331.561859 396.880829,330.843903 
	C394.566345,331.430725 394.113159,332.849884 394.754181,334.991760 
	C397.328827,343.594421 405.938354,347.143860 413.873016,342.898773 
	C417.072723,341.186920 419.391998,338.672241 421.594513,334.975800 
M351.062286,540.464966 
	C349.732666,538.729065 349.048615,536.390320 346.396210,535.128418 
	C345.961578,539.169006 346.600220,542.575684 347.021515,546.021057 
	C347.869629,552.957031 345.186859,556.054016 338.201508,556.227356 
	C329.820038,556.435547 323.596375,552.528076 318.823792,545.852417 
	C317.847412,544.486572 317.527222,542.295105 315.201508,542.184875 
	C313.551697,549.228027 319.233215,557.690491 326.352844,558.708313 
	C331.131012,559.391357 335.937836,559.701782 340.781921,559.776672 
	C345.930328,559.856262 350.204437,559.006165 353.037720,553.988159 
	C355.804260,549.088379 354.386749,545.078796 351.062286,540.464966 
M271.509521,400.316345 
	C268.311646,400.150452 265.107758,400.592529 262.240631,401.812042 
	C255.179474,404.815430 248.314087,407.952576 240.281662,405.419708 
	C237.614243,404.578613 236.648071,406.972137 236.092392,409.227417 
	C235.460449,411.792267 237.281982,412.453003 239.056488,412.942993 
	C244.832474,414.537933 250.639481,414.855804 255.789108,411.270813 
	C262.040283,406.918945 268.934845,405.232452 276.397400,405.078278 
	C278.030243,405.044556 280.126099,405.860748 281.270508,403.332062 
	C278.979950,400.335510 275.677094,400.334198 271.509521,400.316345 
M250.211884,469.041412 
	C251.222488,469.818237 252.019226,471.042938 253.568512,470.682526 
	C259.914368,460.523438 254.359909,445.887695 242.634842,441.794708 
	C239.443832,448.312744 242.372589,459.360199 250.211884,469.041412 
M340.303558,306.858582 
	C341.802277,305.267609 343.962830,304.252045 345.115326,301.796387 
	C344.140839,301.796387 343.557251,301.610809 343.245087,301.823517 
	C335.413239,307.160065 327.381805,312.329315 321.312500,319.741211 
	C316.670654,325.409882 316.444946,332.062744 318.361572,338.919312 
	C318.874146,328.045166 323.413635,319.435211 332.284393,313.108459 
	C334.853333,311.276245 337.286469,309.253601 340.303558,306.858582 
M250.202927,418.453522 
	C246.157150,417.841644 242.119888,416.844299 236.968613,417.784485 
	C241.512741,424.073242 245.500748,429.592377 249.488739,435.111481 
	C249.904388,434.960663 250.320053,434.809845 250.735703,434.659058 
	C249.854324,429.477661 249.061279,424.297333 250.202927,418.453522 
M338.087799,363.537872 
	C336.730621,365.254669 335.373413,366.971466 334.016235,368.688263 
	C341.078430,363.523193 348.066956,358.687500 356.092194,355.450256 
	C348.918518,355.001282 343.384918,358.196838 338.087799,363.537872 
M383.727234,484.512115 
	C385.359436,489.726715 385.756409,495.122772 386.145844,500.521545 
	C387.256134,494.060516 385.853912,487.945496 383.369537,481.970001 
	C383.420471,482.607849 383.471405,483.245667 383.727234,484.512115 
M316.699036,346.290100 
	C314.904480,347.443726 313.109924,348.597382 311.315369,349.751007 
	C311.514709,350.030853 311.714020,350.310669 311.913361,350.590485 
	C315.245514,348.565002 318.577667,346.539551 321.909851,344.514069 
	C321.779816,344.278992 321.649780,344.043915 321.519745,343.808868 
	C320.110474,344.527100 318.701202,345.245361 316.699036,346.290100 
z"/>
<path fill="#000000" opacity="1.000000" stroke="none" 
	d="
M805.388855,547.271851 
	C788.754028,579.113953 763.941101,603.432800 737.224609,626.013367 
	C699.728333,657.705017 658.773804,684.585693 617.788208,711.434326 
	C585.600220,732.519836 553.351501,753.569763 523.893555,778.482178 
	C507.072418,792.707703 491.250854,808.026978 477.147308,824.946472 
	C464.631622,839.961121 457.193420,857.490417 454.301392,876.881592 
	C454.138916,877.971008 454.392090,879.298279 452.569672,879.813110 
	C451.293427,878.314758 451.867096,876.453979 451.876953,874.769287 
	C452.060089,843.395447 463.298462,816.080383 481.879974,791.212708 
	C504.100403,761.475037 531.672180,737.110229 559.163696,712.593872 
	C599.430847,676.684509 644.858093,648.209961 690.807129,620.417969 
	C719.911194,602.814514 748.453979,584.355469 773.429810,560.976318 
	C791.315369,544.234253 805.695557,525.076904 814.120056,501.836578 
	C815.289062,498.611389 816.156677,495.276947 817.267700,491.654572 
	C820.402039,499.954285 814.971741,528.003601 805.388855,547.271851 
z"/>
<path fill="#000000" opacity="1.000000" stroke="none" 
	d="
M623.344666,564.277466 
	C610.621643,582.775085 593.758423,596.672485 577.305725,610.999817 
	C558.731567,627.174622 539.211609,642.275879 521.808899,659.783813 
	C521.138489,660.458313 520.551086,661.414429 519.196472,660.812500 
	C518.364929,658.429688 520.098694,656.777405 521.186157,655.062012 
	C529.760986,641.534790 541.347290,630.762207 553.294434,620.352356 
	C577.446777,599.307922 600.854309,577.591797 618.580200,550.526672 
	C625.351868,540.187195 630.901672,529.205017 636.400452,518.177185 
	C637.391357,516.189880 638.131775,513.938965 641.088135,511.883514 
	C640.852295,531.851990 633.963989,548.492126 623.344666,564.277466 
z"/>
<path fill="#000000" opacity="1.000000" stroke="none" 
	d="
M337.509094,450.878601 
	C340.799713,450.407379 342.775757,451.198456 342.700714,455.060638 
	C340.034424,454.593903 336.435974,456.061127 337.509094,450.878601 
z"/>
<path fill="#000000" opacity="1.000000" stroke="none" 
	d="
M320.518799,433.213715 
	C321.883240,433.934631 323.076111,434.624634 322.060608,435.964691 
	C321.196777,437.104614 319.861053,437.343109 318.500610,436.584930 
	C317.614471,436.091095 316.600067,435.495697 316.926208,434.375244 
	C317.401703,432.741486 318.828827,432.830597 320.518799,433.213715 
z"/>
<path fill="#000000" opacity="1.000000" stroke="none" 
	d="
M357.423645,423.934937 
	C356.206329,420.895050 358.082306,420.691681 359.999054,420.830414 
	C361.462585,420.936310 362.680389,421.967773 362.149078,423.442627 
	C361.232758,425.986053 359.334137,424.827972 357.423645,423.934937 
z"/>
<path fill="#000000" opacity="1.000000" stroke="none" 
	d="
M321.738922,406.742828 
	C323.638092,405.706543 325.529694,404.574310 326.672241,406.807526 
	C327.414490,408.258331 325.938049,409.278473 324.619141,409.565857 
	C322.682037,409.988007 320.881348,409.841217 321.738922,406.742828 
z"/>
<path fill="#000000" opacity="1.000000" stroke="none" 
	d="
M289.685638,435.771393 
	C291.135834,432.972656 292.855011,433.829254 294.458038,435.233521 
	C295.148407,435.838257 295.068604,436.819946 294.275604,437.356812 
	C292.342743,438.665436 290.907562,437.801971 289.685638,435.771393 
z"/>
<path fill="#000000" opacity="1.000000" stroke="none" 
	d="
M345.445923,401.368896 
	C347.664154,400.882202 348.874512,401.787323 349.771179,403.417969 
	C349.039398,405.800751 347.295288,405.829773 345.570953,404.883087 
	C344.251556,404.158691 343.140869,402.915955 345.445923,401.368896 
z"/>
</svg>